<svg width="38" height="40" viewBox="0 0 38 40" fill="none" xmlns="http://www.w3.org/2000/svg">
<path d="M22.2365 4.79759C22.6629 3.1527 20.7388 0.913826 19.7234 0C19.7234 1.29459 19.495 1.5992 16.6773 3.73146C14.4232 5.43727 14.1643 7.84368 14.3166 8.83366C13.6465 8.77273 13.4789 8.19905 13.4789 7.91983C13.6617 6.76232 13.1997 5.76218 12.9459 5.40681C11.6056 3.94468 8.83366 3.37608 7.61522 3.27454C9.44287 4.87374 8.52905 6.39679 7.61522 8.52905C6.88416 10.2349 8.17368 12.7936 8.90982 13.8597C8.48337 14.2862 7.31063 13.1236 6.77756 12.489C5.07175 10.7222 1.80227 12.1082 0.380761 13.022C1.78196 13.1439 2.43687 14.5451 2.58917 15.2304C3.44208 19.1904 5.99064 20.5865 7.15831 20.7896C6.42725 21.5815 5.12758 21.1195 4.56913 20.7896C2.19318 20.7286 0.533065 23.7087 0 25.2064C0.228457 24.9018 1.97996 24.2926 3.88376 26.2725C5.40681 27.8565 8.68135 27.7448 10.1282 27.4909C10.0673 28.1611 9.29058 28.5317 8.90982 28.6332C6.35111 29.1815 6.42218 33.3293 6.77756 35.3346C7.26493 34.1162 8.75752 33.8116 9.44289 33.8116C13.4028 34.4208 15.662 32.3393 16.2966 31.2224C16.6621 31.7098 16.6012 32.1362 16.525 32.2885C13.9054 34.6645 16.7027 38.1523 18.4288 39.5991C18.1496 38.8376 18.2004 37.01 20.6373 35.7915C23.0741 34.5731 23.531 32.0347 23.4549 30.9178C23.8204 30.1867 24.2672 30.9686 24.4449 31.4509C24.0793 34.8016 27.9986 35.8931 30.004 36.02C28.7855 35.1671 29.2932 33.177 29.6994 32.2885C30.8569 29.1206 30.1817 27.2117 29.6994 26.6533C28.9683 25.4958 29.5978 25.6125 30.004 25.8156C32.6845 28.8617 36.0454 27.3894 37.3907 26.2725C35.8677 26.2116 35.2839 24.7241 35.1823 23.9879C34.1467 19.8453 31.857 18.7081 30.8417 18.6573C30.598 17.9262 31.3493 17.8958 31.7555 17.9719C32.6693 18.4593 33.9131 18.3273 34.4208 18.2004C36.0657 17.713 37.3907 15.4589 37.8477 14.3928C36.1723 14.6212 35.4108 14.3166 33.2024 12.489C31.4356 11.0268 28.8617 11.4228 27.7956 11.8036C27.7956 10.8288 29.0648 10.3821 29.6994 10.2805C31.6489 9.54949 31.4763 5.86372 31.1463 4.11222C30.0801 5.55911 29.3948 5.55911 26.5771 5.40681C24.323 5.28496 22.2872 7.03139 21.5511 7.91983C20.6373 6.92985 21.7034 6.8537 22.2365 4.79759Z" fill="#F8D65F"/>
<path d="M23.455 10.8895C22.9067 12.9609 21.805 13.7833 21.3227 13.9356C21.3227 12.2603 21.0943 11.4987 19.2666 9.82339C17.8045 8.48311 17.6928 7.13268 17.8197 6.625C16.8298 7.31037 16.9821 8.3765 17.8197 10.5088C18.4899 12.2146 17.8451 13.5041 17.439 13.9356C17.2105 12.8695 15.9921 11.651 13.2506 11.4987C11.0574 11.3769 10.5091 9.9757 10.5091 9.29033C10.2045 9.92493 10.0218 11.4226 11.7276 12.3364C13.4334 13.2502 14.266 15.0525 14.469 15.8394C12.946 14.4687 10.7376 15.5348 9.443 16.4486C8.40733 17.1797 6.82844 16.8548 6.16846 16.6009C6.2903 17.8194 7.84381 17.9717 8.60533 17.8955C11.8951 17.53 12.8191 18.657 12.8699 19.2663C11.956 19.1901 10.2807 20.3324 9.59531 22.0077C9.04701 23.348 7.58996 24.4954 6.92998 24.9015C7.51381 25.1808 9.00132 25.3737 10.2807 23.9116C11.56 22.4494 13.1491 22.5408 13.7837 22.7693C12.7937 23.4546 12.3368 24.4446 12.8699 26.9576C13.2963 28.9681 12.6922 30.486 12.3368 30.9937C13.0983 30.9176 14.3929 29.7753 14.469 27.8715C14.53 26.3484 15.9667 25.4092 16.6774 25.13C16.5251 25.9677 16.6013 27.9019 18.1243 28.9376C19.6474 29.9733 20.0789 32.0091 20.1043 32.8975C20.5104 32.3137 21.1247 30.7348 20.3328 29.0899C19.5408 27.445 20.0028 25.9677 20.3328 25.4346C20.4089 25.9677 21.6274 27.7953 23.7596 27.643C25.4654 27.5212 26.958 28.8107 27.4911 29.4707C27.4911 28.7853 27.4911 27.4907 25.2827 26.3484C23.5159 25.4346 23.3789 24.0892 23.5312 23.5308C24.8714 24.14 26.2726 23.7846 26.8057 23.5308C28.5115 22.4342 30.7148 22.4139 31.6033 22.5408C30.6895 20.9416 29.3949 21.1701 27.4911 21.3224C25.968 21.4442 25.1811 20.5609 24.978 20.1039C26.5011 19.9212 27.288 18.8601 27.4911 18.3524C28.6486 15.8546 30.2579 14.7225 30.9179 14.4687C29.7756 14.0879 28.2526 14.4687 26.958 15.8394C25.9223 16.936 24.5465 16.804 23.9881 16.6009C24.5719 16.0933 25.5873 14.5296 24.978 12.3364C24.3688 10.1432 25.2319 8.93495 25.7396 8.60496C25.2065 8.50343 24.0033 8.81819 23.455 10.8895Z" fill="white"/>
</svg>
